{"title":"The Worlds End 2013 BRRip 480p x264 AAC - VYTO [P2PDL]","uid":9210375,"size":381227681,"categoryP":"video","categoryS":"movies","magnet":"?xt=urn:btih:fe50cd6c2ecba1e3d02bbbf281e2fca2003e8164&amp;dn=The+Worlds+End+2013+BRRip+480p+x264+AAC+-+VYTO+%5BP2PDL%5D&amp;tr=udp%3A%2F%2Ftracker.openbittorrent.com%3A80&amp;tr=udp%3A%2F%2Fopen.demonii.com%3A1337&amp;tr=udp%3A%2F%2Ftracker.coppersurfer.tk%3A6969&amp;tr=udp%3A%2F%2Fexodus.desync.com%3A6969","seeders":1,"leechers":0,"uploader":"Vitamin_X","files":-1,"time":1384774043,"description":"_______ Visit us at our Semi Public Bittorrent Community ________\n  &lt;a href=&quot;\nhttp://p2pdl.com&quot; rel=&quot;nofollow&quot; target=&quot;_NEW&quot;&gt;\nhttp://p2pdl.com&lt;/a&gt;  _____________________________ &lt;a href=&quot; http://p2pdl.com&quot; rel=&quot;nofollow&quot; target=&quot;_NEW&quot;&gt; http://p2pdl.com&lt;/a&gt;\n\n\nThe Worlds End 2013 BRRip 480p x264 AAC - VYTO\n\nPlot:\nFive friends who reunite in an attempt to top their \nepic pub crawl from 20 years earlier unwittingly \nbecome humankind's only hope for survival.\n\nIMDb: &lt;a href=&quot;\nhttp://www.imdb.com/title/tt1213663/&quot; rel=&quot;nofollow&quot; target=&quot;_NEW&quot;&gt;\nhttp://www.imdb.com/title/tt1213663/&lt;/a&gt;\n\nGeneral\nFormat                                   : MPEG-4\nFile size                                : 360 MiB\nDuration                                 : 1h 49mn\nOverall bit rate mode                    : Variable\nOverall bit rate                         : 462 Kbps\n\nVideo\nFormat                                   : AVC\nBit rate                                 : 419 Kbps\nWidth                                    : 720 pixels\nHeight                                   : 304 pixels\nDisplay aspect ratio                     : 2.35:1\nFrame rate mode                          : Constant\nFrame rate                               : 23.976 fps\nBit depth                                : 10 bits\nStream size                              : 327 MiB (91%)\nWriting library                          : x264 core 138 r2358 9e941d1\n\nAudio\nFormat                                   : AAC\nBit rate                                 : 40.0 Kbps\nChannel(s)                               : 2 channels\nChannel positions                        : Front: L R\nSampling rate                            : 48.0 KHz / 24.0 KHz\nStream size                              : 31.2 MiB (9%)\nLanguage                                 : English\n\nSubtitle                                 : Yes (English)\n\nSource                                   : 720p.BluRay.x264-SPARKS\n\nScreenshots:\n &lt;a href=&quot;\nhttp://ultraimg.com/images/QnugO.png&quot; rel=&quot;nofollow&quot; target=&quot;_NEW&quot;&gt;\nhttp://ultraimg.com/images/QnugO.png&lt;/a&gt; &lt;a href=&quot;\nhttp://ultraimg.com/images/5r7YH.png&quot; rel=&quot;nofollow&quot; target=&quot;_NEW&quot;&gt;\nhttp://ultraimg.com/images/5r7YH.png&lt;/a&gt; &lt;a href=&quot;\nhttp://ultraimg.com/images/49J5h.png&quot; rel=&quot;nofollow&quot; target=&quot;_NEW&quot;&gt;\nhttp://ultraimg.com/images/49J5h.png&lt;/a&gt; &lt;a href=&quot;\nhttp://ultraimg.com/images/4STtB.png&quot; rel=&quot;nofollow&quot; target=&quot;_NEW&quot;&gt;\nhttp://ultraimg.com/images/4STtB.png&lt;/a&gt; &lt;a href=&quot;\nhttp://ultraimg.com/images/ldpGT.png&quot; rel=&quot;nofollow&quot; target=&quot;_NEW&quot;&gt;\nhttp://ultraimg.com/images/ldpGT.png&lt;/a&gt;\n\n----------------------------------------------------------------------------------------------------\n\n\nEncoded using revolutionary 10bit encoding, which enables us to provide you more crispier \nand sharper images at small sizes, just make sure you follow our instructions without a fault.\nRecommend to you to use latest version of VLC player. Install K-Lite Codec Pack or shark007 codecs\nin case of any kind of problem in playback (For non-VLC Media Player users). Alternatively, install\nCore AVC codecs, the fastest decoder that there is coupled with Community Center Codec Pack and play\non Windows Media Player Classic. Check sample to be sure.\nEnjoy!\n\nEncoder Notes:Looking For Early Access To Anything You Can Provide DVDScr, R5, DVDR, BluRay, Direct\nAudio, Music Releases and Seedboxes. We require dedicated servers, so as to do more \nand fast releases of movies.\nIf You Got anything to offer please contact us at &quot;&lt;a class=&quot;__cf_email__&quot; href=&quot;/cdn-cgi/l/email-protection&quot; data-cfemail=&quot;4131332601293432296f222e2c&quot;&gt;[email&amp;#160;protected]&lt;/a&gt;&lt;script cf-hash='f9e31' type=&quot;text/javascript&quot;&gt;\n/* &lt;![CDATA[ */!function(){try{var t=&quot;currentScript&quot;in document?document.currentScript:function(){for(var t=document.getElementsByTagName(&quot;script&quot;),e=t.length;e--;)if(t[e].getAttribute(&quot;cf-hash&quot;))return t[e]}();if(t&amp;&amp;t.previousSibling){var e,r,n,i,c=t.previousSibling,a=c.getAttribute(&quot;data-cfemail&quot;);if(a){for(e=&quot;&quot;,r=parseInt(a.substr(0,2),16),n=2;a.length-n;n+=2)i=parseInt(a.substr(n,2),16)^r,e+=String.fromCharCode(i);e=document.createTextNode(e),c.parentNode.replaceChild(e,c)}}}catch(u){}}();/* ]]&gt; */&lt;/script&gt;&quot;.\n\nFacebook Fan Page:  \nSearch P2PDL on FB and don't forget to hit like!!!\n\nSupport us, please consider a donation.\n\nFor more of our team uploads visit @            &lt;a href=&quot;\nhttp://thepiratebay.se/user/varuttee&quot; rel=&quot;nofollow&quot; target=&quot;_NEW&quot;&gt;\nhttp://thepiratebay.se/user/varuttee&lt;/a&gt;\t","torrent":{"xt":"urn:btih:fe50cd6c2ecba1e3d02bbbf281e2fca2003e8164","amp;dn":"The+Worlds+End+2013+BRRip+480p+x264+AAC+-+VYTO+%5BP2PDL%5D","amp;tr":["udp%3A%2F%2Ftracker.openbittorrent.com%3A80","udp%3A%2F%2Fopen.demonii.com%3A1337","udp%3A%2F%2Ftracker.coppersurfer.tk%3A6969","udp%3A%2F%2Fexodus.desync.com%3A6969"],"infoHash":"fe50cd6c2ecba1e3d02bbbf281e2fca2003e8164","infoHashBuffer":{"type":"Buffer","data":[254,80,205,108,46,203,161,227,208,43,187,242,129,226,252,162,0,62,129,100]},"announce":[],"urlList":[]}}